:version 1.10
:name ASF
:units
  mass 1
  length 1
  angle deg
:documentation
  ASF file generated by Kaydara
:root
  axis xyz
  order  tx ty tz rx ry rz
  position 0 0 0
  orientation 0 0 0
:bonedata
  begin
    id 1
    name lfemurDummy
    direction 0.61522 -0.761478 0.204097
    length 5.68318
    axis 0 -0 0 xyz
  end
  begin
    id 2
    name lfemur
    direction 0.34202 -0.939693 -5.84747e-008
    length 16.9147
    axis 0 -0 20 xyz
    dof rx ry rz
    limits( -inf , inf )
( -inf , inf )
( -inf , inf )

  end
  begin
    id 3
    name ltibia
    direction 0.34202 -0.939693 1.20839e-009
    length 18.0532
    axis 0 -0 20 xyz
    dof rz ry rx
    limits( -inf , inf )
( -inf , inf )
( -inf , inf )

  end
  begin
    id 4
    name lfoot
    direction 0.0841971 -0.23133 0.969225
    length 5.23822
    axis -90 7.62852e-016 20 xyz
    dof ry rx rz
    limits( -inf , inf )
( -inf , inf )
( -inf , inf )

  end
  begin
    id 5
    name ltoes
    direction 0 0 0
    length 0
    axis 0 0 0 xyz
    dof rz ry rx
    limits( -inf , inf )
( -inf , inf )
( -inf , inf )

  end
  begin
    id 6
    name rfemurDummy
    direction -0.625247 -0.75382 0.202044
    length 5.74091
    axis 0 -0 0 xyz
  end
  begin
    id 7
    name rfemur
    direction -0.34202 -0.939693 -1.47013e-008
    length 16.4922
    axis 0 -0 -20 xyz
    dof rx ry rz
    limits( -inf , inf )
( -inf , inf )
( -inf , inf )

  end
  begin
    id 8
    name rtibia
    direction -0.34202 -0.939693 -7.74345e-010
    length 18.2421
    axis 0 -0 -20 xyz
    dof rz ry rx
    limits( -inf , inf )
( -inf , inf )
( -inf , inf )

  end
  begin
    id 9
    name rfoot
    direction -0.124331 -0.341598 0.931586
    length 5.45787
    axis -90 -7.62852e-016 -20 xyz
    dof ry rx rz
    limits( -inf , inf )
( -inf , inf )
( -inf , inf )

  end
  begin
    id 10
    name rtoes
    direction 0 0 0
    length 0
    axis 0 0 0 xyz
    dof rz ry rx
    limits( -inf , inf )
( -inf , inf )
( -inf , inf )

  end
  begin
    id 11
    name lowerbackDummy
    direction 0 0 0
    length 0
    axis 0 -0 0 xyz
  end
  begin
    id 12
    name lowerback
    direction -0.0218484 0.994884 -0.0986304
    length 4.45607
    axis 0 -0 0 xyz
    dof rx ry rz
    limits( -inf , inf )
( -inf , inf )
( -inf , inf )

  end
  begin
    id 13
    name upperback
    direction -0.00973057 0.999717 -0.0217111
    length 4.47449
    axis 0 -0 0 xyz
    dof rx ry rz
    limits( -inf , inf )
( -inf , inf )
( -inf , inf )

  end
  begin
    id 14
    name thorax
    direction -0.000928171 0.999699 0.0245198
    length 4.50973
    axis 0 -0 0 xyz
    dof rx ry rz
    limits( -inf , inf )
( -inf , inf )
( -inf , inf )

  end
  begin
    id 15
    name rclavicle
    direction -0.9009 0.425937 -0.0834055
    length 7.28587
    axis 0 -0 0 xyz
    dof rx ry rz
    limits( -inf , inf )
( -inf , inf )
( -inf , inf )

  end
  begin
    id 16
    name rhumerus
    direction -1 -2.23604e-007 -1.42637e-007
    length 13.5704
    axis 180 30 90 xyz
    dof rx ry rz
    limits( -inf , inf )
( -inf , inf )
( -inf , inf )

  end
  begin
    id 17
    name rradius
    direction -1 5.68281e-008 -4.4952e-007
    length 8.06782
    axis 180 30 90 xyz
    dof rz ry rx
    limits( -inf , inf )
( -inf , inf )
( -inf , inf )

  end
  begin
    id 18
    name rwrist
    direction -1 1.51393e-007 1.38143e-007
    length 4.03391
    axis -90 -90 0 xyz
    dof rz rx ry
    limits( -inf , inf )
( -inf , inf )
( -inf , inf )

  end
  begin
    id 19
    name rthumb
    direction 0 0 0
    length 0
    axis 0 0 0 xyz
    dof ry rx rz
    limits( -inf , inf )
( -inf , inf )
( -inf , inf )

  end
  begin
    id 20
    name rhand
    direction -1 -3.34077e-007 -5.59631e-007
    length 1.29744
    axis -90 -90 0 xyz
    dof ry rx rz
    limits( -inf , inf )
( -inf , inf )
( -inf , inf )

  end
  begin
    id 21
    name rfingers
    direction 0 0 0
    length 0
    axis 0 0 0 xyz
    dof rz ry rx
    limits( -inf , inf )
( -inf , inf )
( -inf , inf )

  end
  begin
    id 22
    name lclavicle
    direction 0.940017 0.332249 -0.0773232
    length 8.29589
    axis 0 -0 0 xyz
    dof rx ry rz
    limits( -inf , inf )
( -inf , inf )
( -inf , inf )

  end
  begin
    id 23
    name lhumerus
    direction 1 7.41158e-008 -1.44768e-008
    length 12.0042
    axis 180 -30 -90 xyz
    dof rx ry rz
    limits( -inf , inf )
( -inf , inf )
( -inf , inf )

  end
  begin
    id 24
    name lradius
    direction 1 -1.32972e-007 3.10821e-007
    length 8.1902
    axis 180 -30 -90 xyz
    dof rz ry rx
    limits( -inf , inf )
( -inf , inf )
( -inf , inf )

  end
  begin
    id 25
    name lwrist
    direction 1 3.08957e-007 4.01394e-007
    length 4.09509
    axis -90 90 0 xyz
    dof rz rx ry
    limits( -inf , inf )
( -inf , inf )
( -inf , inf )

  end
  begin
    id 26
    name lthumb
    direction 0 0 0
    length 0
    axis 0 0 0 xyz
    dof ry rx rz
    limits( -inf , inf )
( -inf , inf )
( -inf , inf )

  end
  begin
    id 27
    name lhand
    direction 1 -1.64125e-007 -6.99514e-007
    length 1.37229
    axis -90 90 0 xyz
    dof ry rx rz
    limits( -inf , inf )
( -inf , inf )
( -inf , inf )

  end
  begin
    id 28
    name lfingers
    direction 0 0 0
    length 0
    axis 0 0 0 xyz
    dof rz ry rx
    limits( -inf , inf )
( -inf , inf )
( -inf , inf )

  end
  begin
    id 29
    name lowerneck
    direction -0.030798 0.998024 0.0547665
    length 3.93918
    axis 0 -0 0 xyz
    dof rx ry rz
    limits( -inf , inf )
( -inf , inf )
( -inf , inf )

  end
  begin
    id 30
    name upperneck
    direction 0.0531588 0.996611 -0.0627736
    length 3.95491
    axis 0 -0 0 xyz
    dof rx ry rz
    limits( -inf , inf )
( -inf , inf )
( -inf , inf )

  end
  begin
    id 31
    name head
    direction 0 0 0
    length 0
    axis 0 0 0 xyz
    dof rx ry rz
    limits( -inf , inf )
( -inf , inf )
( -inf , inf )

  end
:hierarchy
  begin
    root lfemurDummy rfemurDummy lowerbackDummy
    lfemurDummy lfemur
    lfemur ltibia
    ltibia lfoot
    lfoot ltoes
    rfemurDummy rfemur
    rfemur rtibia
    rtibia rfoot
    rfoot rtoes
    lowerbackDummy lowerback
    lowerback upperback
    upperback thorax
    thorax rclavicle lclavicle lowerneck
    rclavicle rhumerus
    rhumerus rradius
    rradius rwrist
    rwrist rthumb rhand
    rhand rfingers
    lclavicle lhumerus
    lhumerus lradius
    lradius lwrist
    lwrist lthumb lhand
    lhand lfingers
    lowerneck upperneck
    upperneck head
  end

:SAMPLES-PER-SECOND 30
:FULLY-SPECIFIED
:DEGREES
91
root  -2.665088871 38.21044381 -1.193573343 -1.710998535 -32.07099915 0.4849853516
lowerback  15.76830006 1.598780036 -7.881700039
upperback  9.044630051 0.8279330134 -2.840650082
thorax  0.7577009797 0.1036050022 1.318040013
lowerneck  7.526229858 0.1143700033 -10.62479973
upperneck  8.776439667 -1.344570041 13.91069984
head  1.452640057 -0.8802679777 6.029459953
lclavicle  0 -9.442270133e-015 7.951389973e-016
lhumerus  27.89850044 -18.56049919 74.37729645
lradius  1.755786355e-031 -3.063667461e-031 119.8170013
lwrist  -7.062250077e-031 -1.544867204e-031 30.72640038
lhand  -1.496451383e-031 -27.76390076 20.11240005
lfingers  90 7.125020027 -90
lthumb  89.89689403 5.08795885 91.16245106
rclavicle  0 -9.442270133e-015 7.951389973e-016
rhumerus  41.27199936 -1.649639964 -75.44860077
rradius  -2.325404505e-031 2.657317807e-031 131.1889954
rwrist  7.062250077e-031 -3.531125038e-031 -3.235450029
rhand  -7.920061211e-032 -33.2840004 9.303460121
rfingers  -90 -7.125020027 -90
rthumb  -92.93752616 -24.25625642 -97.11982154
rfemur  -34.91429901 16.35040092 1.836249948
rtibia  -0 0 59.23870087
rfoot  -0 -12.25090027 -10.39890003
rtoes  5.373923086 19.29304026 -105.8922705
lfemur  -27.62470055 -3.492110014 -3.685950041
ltibia  -0 0 71.04920197
lfoot  -0 -3.763469934 -11.68480015
ltoes  -4.250644065 -19.5611806 -102.515957
92
root  -2.785822162 37.98777663 -1.197359975 -1.882019043 -31.39300537 -0.01397705078
lowerback  15.50430012 1.371510029 -7.884190083
upperback  8.87185955 0.5598009825 -2.775650024
thorax  0.7308470011 -0.02300840057 1.431089997
lowerneck  7.977930069 0.07376109809 -10.19250011
upperneck  9.124409676 -1.460100055 14.07989979
head  1.490339994 -0.9401389956 6.016170025
lclavicle  0 -9.442270133e-015 7.951389973e-016
lhumerus  28.69059944 -18.9890995 74.41419983
lradius  1.730166132e-031 -3.078208763e-031 119.3389969
lwrist  -7.062250077e-031 1.103476575e-031 30.66699982
lhand  -1.496451383e-031 -27.76390076 20.11240005
lfingers  90 7.125020027 -90
lthumb  89.89689403 5.08795885 91.16245106
rclavicle  0 -9.442270133e-015 7.951389973e-016
rhumerus  40.33890152 -1.886139989 -75.53759766
rradius  -2.315416853e-031 2.666024912e-031 130.973999
rwrist  7.062250077e-031 -1.765562519e-031 -3.250200033
rhand  -7.920061211e-032 -33.2840004 9.303460121
rfingers  -90 -7.125020027 -90
rthumb  -92.93752616 -24.25625642 -97.11982154
rfemur  -34.34529877 17.21789932 1.288400054
rtibia  -0 0 58.16120148
rfoot  -0 -12.74740028 -9.699660301
rtoes  5.373923086 19.29304026 -105.8922705
lfemur  -25.18519974 -3.82081008 -2.867619991
ltibia  -0 0 70.9539032
lfoot  -0 -3.645260096 -11.73799992
ltoes  -4.250644065 -19.5611806 -102.515957
93
root  -2.919422172 37.71510988 -1.207848891 -1.783996582 -30.56300354 -0.7810058594
lowerback  15.2755003 1.081550002 -7.660769939
upperback  8.513380051 0.2278040051 -2.698359966
thorax  0.4894149899 -0.1606210023 1.440019965
lowerneck  8.393190384 -0.0783014968 -9.605629921
upperneck  9.667980194 -1.735190034 14.29660034
head  1.609140038 -1.070119977 5.994530201
lclavicle  0 -9.442270133e-015 7.951389973e-016
lhumerus  29.20100021 -19.75029945 74.43370056
lradius  1.712408636e-031 -3.08812252e-031 119.0090027
lwrist  -1.412450015e-030 2.427648464e-031 30.59900093
lhand  -1.496451383e-031 -27.76390076 20.11240005
lfingers  90 7.125020027 -90
lthumb  89.89689403 5.08795885 91.16245106
rclavicle  0 -9.442270133e-015 7.951389973e-016
rhumerus  39.35070038 -2.200059891 -75.76460266
rradius  -2.306842973e-031 2.673447126e-031 130.7899933
rwrist  3.531125038e-031 -1.765562519e-031 -3.229140043
rhand  -7.920061211e-032 -33.2840004 9.303460121
rfingers  -90 -7.125020027 -90
rthumb  -92.93752616 -24.25625642 -97.11982154
rfemur  -34.02050018 17.62290001 1.10213995
rtibia  -0 0 58.02069855
rfoot  -0 -12.96889973 -8.345149994
rtoes  5.373923086 19.29304026 -105.8922705
lfemur  -22.82040024 -4.133560181 -1.800089955
ltibia  -0 0 70.13430023
lfoot  -0 -3.501329899 -12.58460045
ltoes  -4.250644065 -19.5611806 -102.515957
94
root  -3.049755472 37.42199995 -1.210359983 -1.765014648 -29.59300232 -1.414001465
lowerback  14.74199963 0.6530219913 -7.664070129
upperback  8.354800224 -0.2718069851 -2.503969908
thorax  0.6427310109 -0.4103240073 1.718250036
lowerneck  8.581370354 -0.07855120301 -9.426050186
upperneck  10.05550003 -1.797440052 14.49040031
head  1.696059942 -1.098919988 6.031159878
lclavicle  0 -9.442270133e-015 7.951389973e-016
lhumerus  29.79380035 -20.10110092 74.62760162
lradius  1.693133846e-031 -3.098732292e-031 118.6520004
lwrist  -7.062250077e-031 -1.655214862e-032 30.37610054
lhand  -1.496451383e-031 -27.76390076 20.11240005
lfingers  90 7.125020027 -90
lthumb  89.89689403 5.08795885 91.16245106
rclavicle  0 -9.442270133e-015 7.951389973e-016
rhumerus  38.87929916 -2.19088006 -75.92209625
rradius  -2.299415247e-031 2.679838345e-031 130.6309967
rwrist  1.059337512e-030 -1.765562519e-031 -3.35690999
rhand  -7.920061211e-032 -33.2840004 9.303460121
rfingers  -90 -7.125020027 -90
rthumb  -92.93752616 -24.25625642 -97.11982154
rfemur  -33.74649811 17.44409943 1.004340053
rtibia  -0 0 58.71039963
rfoot  -4.531719843e-032 -13.09329987 -5.754439831
rtoes  5.373923086 19.29304026 -105.8922705
lfemur  -20.28389931 -4.678979874 -1.008739948
ltibia  -0 0 68.60759735
lfoot  -0 -5.098670006 -14.00080013
ltoes  -4.250644065 -19.5611806 -102.515957
95
root  -3.162777893 37.14111208 -1.189655582 -1.848022461 -28.49899292 -1.882019043
lowerback  14.13049984 0.1324860007 -7.683589935
upperback  8.243209839 -0.8861809969 -2.320460081
thorax  0.9044110179 -0.7226960063 1.999009967
lowerneck  8.762630463 -0.02554590069 -9.548399925
upperneck  10.33940029 -1.806570053 14.81369972
head  1.748450041 -1.110689998 6.160719872
lclavicle  0 -9.442270133e-015 7.951389973e-016
lhumerus  30.41399956 -20.12879944 74.9464035
lradius  1.66591956e-031 -3.113447616e-031 118.1500015
lwrist  -7.062250077e-031 1.337965347e-031 30.13310051
lhand  -1.496451383e-031 -27.76390076 20.11240005
lfingers  90 7.125020027 -90
lthumb  89.89689403 5.08795885 91.16245106
rclavicle  0 -9.442270133e-015 7.951389973e-016
rhumerus  38.37030029 -2.351449966 -75.88339996
rradius  -2.301099088e-031 2.67839262e-031 130.6670074
rwrist  7.062250077e-031 -3.531125038e-031 -3.861150026
rhand  -7.920061211e-032 -33.2840004 9.303460121
rfingers  -90 -7.125020027 -90
rthumb  -92.93752616 -24.25625642 -97.11982154
rfemur  -33.40430069 16.71419907 0.962602973
rtibia  -0 0 59.74010086
rfoot  -4.536605316e-032 -13.35599995 -3.33652997
rtoes  5.373923086 19.29304026 -105.8922705
lfemur  -17.6697998 -5.445839882 -0.5781769753
ltibia  -0 0 66.61910248
lfoot  -0 -10.17230034 -16.37540054
ltoes  -4.250644065 -19.5611806 -102.515957
96
root  -3.259288983 36.89444534 -1.163275599 -1.836975098 -27.24000549 -2.418029785
lowerback  13.59049988 -0.4278199971 -7.444129944
upperback  8.068799973 -1.536849976 -2.190779924
thorax  1.05843997 -1.037719965 2.074640036
lowerneck  9.147049904 -0.02941909991 -9.610630035
upperneck  10.42669964 -1.885179996 15.18220043
head  1.718729973 -1.165330052 6.295680046
lclavicle  0 -9.442270133e-015 7.951389973e-016
lhumerus  30.85320091 -20.40239906 75.3588028
lradius  1.640378518e-031 -3.12697975e-031 117.6809998
lwrist  0 5.241513729e-032 29.90839958
lhand  -1.496451383e-031 -27.76390076 20.11240005
lfingers  90 7.125020027 -90
lthumb  89.89689403 5.08795885 91.16245106
rclavicle  0 -9.442270133e-015 7.951389973e-016
rhumerus  37.56940079 -3.044310093 -75.69799805
rradius  -2.313834554e-031 2.667398301e-031 130.9400024
rwrist  7.062250077e-031 -0 -4.783090115
rhand  -7.920061211e-032 -33.2840004 9.303460121
rfingers  -90 -7.125020027 -90
rthumb  -92.93752616 -24.25625642 -97.11982154
rfemur  -33.05400085 15.57960033 1.149410009
rtibia  -0 0 60.77880096
rfoot  -5.684882713e-032 -13.94299984 -1.584849954
rtoes  5.373923086 19.29304026 -105.8922705
lfemur  -15.52719975 -6.287960052 -0.1637499928
ltibia  -0 0 64.51480103
lfoot  -0 -15.97630024 -15.72389984
ltoes  -4.250644065 -19.5611806 -102.515957
97
root  -3.3346668 36.67666518 -1.146671152 -1.749023437 -25.79200745 -2.901977539
lowerback  13.29500008 -1.048410058 -7.230879784
upperback  7.738339901 -2.303070068 -2.015160084
thorax  0.9297009706 -1.399070024 2.227859974
lowerneck  9.810139656 -0.01468809973 -9.793370247
upperneck  10.33909988 -1.948250055 15.54459953
head  1.592409968 -1.231410027 6.451779842
lclavicle  0 -9.442270133e-015 7.951389973e-016
lhumerus  30.84630013 -20.89850044 76.10579681
lradius  1.621738941e-031 -3.13668724e-031 117.3399963
lwrist  -7.062250077e-031 1.213824232e-031 29.63960075
lhand  -1.496451383e-031 -27.76390076 20.11240005
lfingers  90 7.125020027 -90
lthumb  89.89689403 5.08795885 91.16245106
rclavicle  0 -9.442270133e-015 7.951389973e-016
rhumerus  36.66220093 -3.30230999 -75.42009735
rradius  -2.325311796e-031 2.657398933e-031 131.1869965
rwrist  7.062250077e-031 -1.765562519e-031 -5.24105978
rhand  -7.920061211e-032 -33.2840004 9.303460121
rfingers  -90 -7.125020027 -90
rthumb  -92.93752616 -24.25625642 -97.11982154
rfemur  -32.7507019 14.18980026 1.339789987
rtibia  -0 0 61.64780045
rfoot  -4.829076711e-032 -14.62860012 0.01789849997
rtoes  5.373923086 19.29304026 -105.8922705
lfemur  -14.28139973 -7.127500057 0.1333470047
ltibia  -0 0 62.70320129
lfoot  -0 -20.51469994 -13.99610043
ltoes  -4.250644065 -19.5611806 -102.515957
98
root  -3.390577647 36.49377898 -1.152342229 -1.640991211 -24.19000244 -3.101013184
lowerback  13.28579998 -1.672500014 -7.384659767
upperback  7.207729816 -3.149410009 -1.757339954
thorax  0.4749700129 -1.796939969 2.694020033
lowerneck  10.42370033 -0.001618589973 -10.0916996
upperneck  10.40909958 -2.032310009 15.78439999
head  1.525370002 -1.30922997 6.590950012
lclavicle  0 -9.442270133e-015 7.951389973e-016
lhumerus  30.60149956 -21.43759918 77.10070038
lradius  1.60392082e-031 -3.145835666e-031 117.0149994
lwrist  -7.062250077e-031 -1.655214862e-031 28.91690063
lhand  -1.496451383e-031 -27.76390076 20.11240005
lfingers  90 7.125020027 -90
lthumb  89.89689403 5.08795885 91.16245106
rclavicle  0 -9.442270133e-015 7.951389973e-016
rhumerus  35.62469864 -3.105950117 -75.00119781
rradius  -2.336792358e-031 2.647309108e-031 131.4349976
rwrist  7.062250077e-031 -1.765562519e-031 -5.269330025
rhand  -7.920061211e-032 -33.2840004 9.303460121
rfingers  -90 -7.125020027 -90
rthumb  -92.93752616 -24.25625642 -97.11982154
rfemur  -32.56010056 12.72500038 1.272740006
rtibia  -0 0 62.39640045
rfoot  -4.570723311e-032 -15.05189991 1.297580004
rtoes  5.373923086 19.29304026 -105.8922705
lfemur  -13.9659996 -7.938260078 0.05041600019
ltibia  -0 0 61.49440002
lfoot  -0 -23.60519981 -12.83049965
ltoes  -4.250644065 -19.5611806 -102.515957
